<mxfile host="Electron" modified="2023-11-08T13:40:54.332Z" agent="Mozilla/5.0 (Windows NT 10.0; Win64; x64) AppleWebKit/537.36 (KHTML, like Gecko) draw.io/21.7.5 Chrome/114.0.5735.289 Electron/25.8.1 Safari/537.36" etag="oorX13RQs83TrD658Syb" version="21.7.5" type="device">
  <diagram name="Page-1" id="PuhRu-KajmSSqGQuAdge">
    <mxGraphModel dx="2948" dy="1258" grid="1" gridSize="10" guides="1" tooltips="1" connect="1" arrows="1" fold="1" page="1" pageScale="1" pageWidth="850" pageHeight="1100" math="0" shadow="0">
      <root>
        <mxCell id="0" />
        <mxCell id="1" parent="0" />
        <mxCell id="a8jm9zrGm5yUQMqliLf0-5" value="" style="rounded=0;whiteSpace=wrap;html=1;fillColor=none;" vertex="1" parent="1">
          <mxGeometry x="-560" y="220" width="400" height="740" as="geometry" />
        </mxCell>
        <mxCell id="a8jm9zrGm5yUQMqliLf0-6" value="" style="rounded=0;whiteSpace=wrap;html=1;fillColor=none;" vertex="1" parent="1">
          <mxGeometry x="-40" y="230" width="420" height="730" as="geometry" />
        </mxCell>
        <mxCell id="a8jm9zrGm5yUQMqliLf0-32" style="edgeStyle=orthogonalEdgeStyle;rounded=0;orthogonalLoop=1;jettySize=auto;html=1;entryX=1;entryY=0.5;entryDx=0;entryDy=0;startArrow=classic;startFill=1;strokeWidth=4;" edge="1" parent="1" source="a8jm9zrGm5yUQMqliLf0-10" target="a8jm9zrGm5yUQMqliLf0-14">
          <mxGeometry relative="1" as="geometry">
            <Array as="points">
              <mxPoint x="450" y="930" />
              <mxPoint x="450" y="365" />
            </Array>
          </mxGeometry>
        </mxCell>
        <mxCell id="a8jm9zrGm5yUQMqliLf0-10" value="IMAGE HOSTING SERVICE" style="rounded=1;whiteSpace=wrap;html=1;fontSize=30;fillColor=#FFFF99;" vertex="1" parent="1">
          <mxGeometry x="503.75" y="860" width="402.5" height="140" as="geometry" />
        </mxCell>
        <mxCell id="a8jm9zrGm5yUQMqliLf0-11" value="MOMO" style="rounded=1;whiteSpace=wrap;html=1;fontSize=30;fillColor=#FF3399;" vertex="1" parent="1">
          <mxGeometry x="503.75" y="615" width="410" height="140" as="geometry" />
        </mxCell>
        <mxCell id="a8jm9zrGm5yUQMqliLf0-27" style="edgeStyle=orthogonalEdgeStyle;rounded=0;orthogonalLoop=1;jettySize=auto;html=1;startArrow=classic;startFill=1;strokeWidth=4;" edge="1" parent="1" source="a8jm9zrGm5yUQMqliLf0-12" target="a8jm9zrGm5yUQMqliLf0-14">
          <mxGeometry relative="1" as="geometry">
            <Array as="points">
              <mxPoint x="-109" y="440" />
              <mxPoint x="-109" y="365" />
            </Array>
          </mxGeometry>
        </mxCell>
        <mxCell id="a8jm9zrGm5yUQMqliLf0-12" value="Guess/&lt;br&gt;Customer/&lt;br&gt;Hotel Manager&lt;br&gt;&lt;br&gt;Search &lt;br&gt;+&lt;br&gt;Booking" style="rounded=1;whiteSpace=wrap;html=1;fontSize=30;fillColor=#80FF00;" vertex="1" parent="1">
          <mxGeometry x="-490.61" y="330" width="261.24" height="290" as="geometry" />
        </mxCell>
        <mxCell id="a8jm9zrGm5yUQMqliLf0-23" style="edgeStyle=orthogonalEdgeStyle;rounded=0;orthogonalLoop=1;jettySize=auto;html=1;startArrow=classic;startFill=1;strokeWidth=4;" edge="1" parent="1" source="a8jm9zrGm5yUQMqliLf0-13" target="a8jm9zrGm5yUQMqliLf0-17">
          <mxGeometry relative="1" as="geometry" />
        </mxCell>
        <mxCell id="a8jm9zrGm5yUQMqliLf0-13" value="Customer/&lt;br style=&quot;border-color: var(--border-color);&quot;&gt;Hotel Manager&lt;br&gt;&lt;br&gt;View Booking&lt;br&gt;" style="rounded=1;whiteSpace=wrap;html=1;fontSize=30;fillColor=#80FF00;" vertex="1" parent="1">
          <mxGeometry x="-490.61" y="695" width="280.3" height="240" as="geometry" />
        </mxCell>
        <mxCell id="a8jm9zrGm5yUQMqliLf0-24" style="edgeStyle=orthogonalEdgeStyle;rounded=0;orthogonalLoop=1;jettySize=auto;html=1;startArrow=classic;startFill=1;strokeWidth=4;" edge="1" parent="1" source="a8jm9zrGm5yUQMqliLf0-14" target="a8jm9zrGm5yUQMqliLf0-20">
          <mxGeometry relative="1" as="geometry">
            <Array as="points">
              <mxPoint x="460" y="365" />
              <mxPoint x="460" y="365" />
            </Array>
          </mxGeometry>
        </mxCell>
        <mxCell id="a8jm9zrGm5yUQMqliLf0-14" value="Search Service" style="rounded=1;whiteSpace=wrap;html=1;fontSize=30;fillColor=#FF8000;" vertex="1" parent="1">
          <mxGeometry x="11.25" y="320" width="328.75" height="90" as="geometry" />
        </mxCell>
        <mxCell id="a8jm9zrGm5yUQMqliLf0-28" style="edgeStyle=orthogonalEdgeStyle;rounded=0;orthogonalLoop=1;jettySize=auto;html=1;startArrow=classic;startFill=1;strokeWidth=4;" edge="1" parent="1" source="a8jm9zrGm5yUQMqliLf0-15" target="a8jm9zrGm5yUQMqliLf0-12">
          <mxGeometry relative="1" as="geometry">
            <Array as="points">
              <mxPoint x="-109" y="515" />
              <mxPoint x="-109" y="440" />
            </Array>
          </mxGeometry>
        </mxCell>
        <mxCell id="a8jm9zrGm5yUQMqliLf0-29" style="edgeStyle=orthogonalEdgeStyle;rounded=0;orthogonalLoop=1;jettySize=auto;html=1;startArrow=classic;startFill=1;strokeWidth=4;" edge="1" parent="1" source="a8jm9zrGm5yUQMqliLf0-15" target="a8jm9zrGm5yUQMqliLf0-20">
          <mxGeometry relative="1" as="geometry" />
        </mxCell>
        <mxCell id="a8jm9zrGm5yUQMqliLf0-15" value="Booking Service" style="rounded=1;whiteSpace=wrap;html=1;fontSize=30;fillColor=#FF8000;" vertex="1" parent="1">
          <mxGeometry x="11.25" y="470" width="328.75" height="90" as="geometry" />
        </mxCell>
        <mxCell id="a8jm9zrGm5yUQMqliLf0-25" style="edgeStyle=orthogonalEdgeStyle;rounded=0;orthogonalLoop=1;jettySize=auto;html=1;entryX=0;entryY=0.5;entryDx=0;entryDy=0;startArrow=classic;startFill=1;strokeWidth=4;" edge="1" parent="1" source="a8jm9zrGm5yUQMqliLf0-16" target="a8jm9zrGm5yUQMqliLf0-11">
          <mxGeometry relative="1" as="geometry" />
        </mxCell>
        <mxCell id="a8jm9zrGm5yUQMqliLf0-26" value="" style="edgeStyle=orthogonalEdgeStyle;rounded=0;orthogonalLoop=1;jettySize=auto;html=1;startArrow=classic;startFill=1;" edge="1" parent="1" source="a8jm9zrGm5yUQMqliLf0-16" target="a8jm9zrGm5yUQMqliLf0-15">
          <mxGeometry relative="1" as="geometry" />
        </mxCell>
        <mxCell id="a8jm9zrGm5yUQMqliLf0-37" value="" style="edgeStyle=orthogonalEdgeStyle;rounded=0;orthogonalLoop=1;jettySize=auto;html=1;strokeWidth=2;" edge="1" parent="1" source="a8jm9zrGm5yUQMqliLf0-16" target="a8jm9zrGm5yUQMqliLf0-15">
          <mxGeometry relative="1" as="geometry" />
        </mxCell>
        <mxCell id="a8jm9zrGm5yUQMqliLf0-16" value="Payment Service" style="rounded=1;whiteSpace=wrap;html=1;fontSize=30;fillColor=#FF8000;" vertex="1" parent="1">
          <mxGeometry x="16.88" y="640" width="318.75" height="90" as="geometry" />
        </mxCell>
        <mxCell id="a8jm9zrGm5yUQMqliLf0-34" style="edgeStyle=orthogonalEdgeStyle;rounded=0;orthogonalLoop=1;jettySize=auto;html=1;entryX=-0.002;entryY=0.623;entryDx=0;entryDy=0;entryPerimeter=0;strokeWidth=4;" edge="1" parent="1" source="a8jm9zrGm5yUQMqliLf0-17" target="a8jm9zrGm5yUQMqliLf0-20">
          <mxGeometry relative="1" as="geometry">
            <Array as="points">
              <mxPoint x="430" y="815" />
              <mxPoint x="430" y="454" />
            </Array>
          </mxGeometry>
        </mxCell>
        <mxCell id="a8jm9zrGm5yUQMqliLf0-17" value="Hotel Booking Management Service" style="rounded=1;whiteSpace=wrap;html=1;fontSize=30;fillColor=#FF8000;" vertex="1" parent="1">
          <mxGeometry x="16.88" y="775" width="317.5" height="80" as="geometry" />
        </mxCell>
        <mxCell id="a8jm9zrGm5yUQMqliLf0-20" value="DataBase: MySQL&amp;nbsp;" style="rounded=1;whiteSpace=wrap;html=1;fontSize=30;fillColor=#7EA6E0;" vertex="1" parent="1">
          <mxGeometry x="480" y="230" width="450" height="360" as="geometry" />
        </mxCell>
        <mxCell id="a8jm9zrGm5yUQMqliLf0-21" value="Front-End: React&amp;nbsp;" style="text;html=1;strokeColor=none;fillColor=none;align=center;verticalAlign=middle;whiteSpace=wrap;rounded=0;fontSize=34;" vertex="1" parent="1">
          <mxGeometry x="-551.87" y="250" width="383.75" height="30" as="geometry" />
        </mxCell>
        <mxCell id="a8jm9zrGm5yUQMqliLf0-22" value="Back-End: NodeJS&amp;nbsp;" style="text;html=1;strokeColor=none;fillColor=none;align=center;verticalAlign=middle;whiteSpace=wrap;rounded=0;fontSize=34;" vertex="1" parent="1">
          <mxGeometry x="-21.879999999999995" y="260" width="383.75" height="30" as="geometry" />
        </mxCell>
      </root>
    </mxGraphModel>
  </diagram>
</mxfile>
